<?xml version="1.0" encoding="UTF-8"?> <!-- Generator: Adobe Illustrator 19.0.0, SVG Export Plug-In . SVG Version: 6.00 Build 0) --> <svg xmlns="http://www.w3.org/2000/svg" xmlns:xlink="http://www.w3.org/1999/xlink" id="Capa_1" x="0px" y="0px" viewBox="0 0 512 512" style="enable-background:new 0 0 512 512;" xml:space="preserve"> <g> <rect x="-8.139" y="385.796" transform="matrix(-0.7071 0.7071 -0.7071 -0.7071 364.398 635.6542)" style="fill:#85453D;" width="117.379" height="15"></rect> <path style="fill:#85453D;" d="M485.752,449.5v55c0,4.143,3.358,7.5,7.5,7.5s7.5-3.357,7.5-7.5v-45L485.752,449.5z"></path> </g> <path style="fill:#A45E43;" d="M3.752,459.5v45c0,4.143,3.358,7.5,7.5,7.5s7.5-3.357,7.5-7.5v-55L3.752,459.5z"></path> <path style="fill:#2DADE3;" d="M470.752,399.5h-30l30,30h30C500.752,413,487.252,399.5,470.752,399.5z"></path> <path style="fill:#49C9FF;" d="M440.752,399.5H170.571L35.57,264.502c-5.858-5.858-15.355-5.858-21.213,0s-5.858,15.355,0,21.213 L158.141,429.5h312.611C470.752,413,457.252,399.5,440.752,399.5z"></path> <polygon style="fill:#85453D;" points="500.752,429.5 500.752,459.5 470.752,459.5 450.752,444.5 470.752,429.5 "></polygon> <rect x="3.752" y="429.5" style="fill:#A45E43;" width="467" height="30"></rect> <path style="fill:#FF8D7E;" d="M74.458,212.317l63.64,63.64c-17.574,17.574-46.066,17.574-63.64,0 C56.885,258.383,56.885,229.89,74.458,212.317z"></path> <g> <path style="fill:#FFB4A9;" d="M95.671,254.743c-17.574-17.574-27.071-36.569-21.213-42.426c17.574-17.574,46.066-17.574,63.64,0 s17.574,46.066,0,63.64C132.24,281.814,113.245,272.317,95.671,254.743z"></path> <path style="fill:#FFB4A9;" d="M210.576,284.796c18.416-18.416,28.557-42.9,28.557-68.943c0-26.044-10.142-50.528-28.557-68.943 c-2.929-2.928-7.678-2.928-10.606,0c-2.929,2.93-2.929,7.678,0,10.607c15.582,15.581,24.164,36.299,24.164,58.336 c0,22.036-8.582,42.754-24.164,58.336l-31.82,31.82l10.607,10.607L210.576,284.796z"></path> <path style="fill:#FFB4A9;" d="M437.748,361.992H413.06l-42.362-120.398c-0.051-0.146-0.107-0.29-0.167-0.432 c-3.584-8.476-11.981-14.17-20.895-14.17c-9.536,0-18.067,6.041-21.229,15.033l-33.384,94.913l14.15,4.977l33.384-94.913 c1.054-2.996,3.899-5.01,7.079-5.01s5.897,2.405,7.003,4.838l44.035,125.151c1.056,3.002,3.892,5.011,7.075,5.011h30 c4.142,0,7.5-3.357,7.5-7.5S441.89,361.992,437.748,361.992z"></path> </g> <path style="fill:#9DB55F;" d="M235.273,331.992h75c0,24.853-20.147,45-45,45L235.273,331.992z"></path> <path style="fill:#B9D171;" d="M265.273,346.992l-30-15l30-45c24.853,0,45,20.147,45,45 C310.273,340.276,290.126,346.992,265.273,346.992z"></path> <path style="fill:#FF8D7E;" d="M148.704,300.277l-7.071,7.071c-7.811,7.811-7.811,20.474,0,28.284l20.148,20.147 c11.667,11.667,34.713,21.213,51.213,21.213h52.279v-30L148.704,300.277z"></path> <path style="fill:#FFB4A9;" d="M265.273,286.992h-45l-15-15c-7.811-7.811-20.474-7.811-28.284,0l-28.284,28.284l34.29,34.29 c6.039,6.038,21.46,12.426,30,12.426h52.279v-60H265.273z"></path> <path style="fill:#FF8646;" d="M500.752,75h-56.893l40.23-40.23c2.929-2.929,2.929-7.678,0-10.607s-7.677-2.929-10.607,0 l-40.23,40.23l-15,36.213V157.5c0,4.143,3.358,7.5,7.5,7.5s7.5-3.357,7.5-7.5v-56.893l40.23,40.23c2.929,2.929,7.678,2.929,10.607,0 s2.929-7.677,0-10.607L443.859,90h56.893c4.143,0,7.5-3.358,7.5-7.5S504.895,75,500.752,75z"></path> <g> <path style="fill:#FFA754;" d="M425.752,0c-4.142,0-7.5,3.357-7.5,7.5v56.893l-40.23-40.23c-2.929-2.929-7.678-2.929-10.607,0 s-2.929,7.677,0,10.607L407.645,75h-56.893c-4.143,0-7.5,3.358-7.5,7.5s3.357,7.5,7.5,7.5h56.893l-40.23,40.23 c-2.929,2.929-2.929,7.678,0,10.607s7.677,2.929,10.607,0l40.23-40.23l15-36.213V7.5C433.252,3.357,429.894,0,425.752,0z"></path> <path style="fill:#FFA754;" d="M425.752,127.5v-90c24.853,0,45,20.147,45,45S450.605,127.5,425.752,127.5z"></path> </g> <path style="fill:#FFCB63;" d="M440.752,82.5c0,24.853-6.716,45-15,45c-24.853,0-45-20.147-45-45s20.147-45,45-45 C434.036,37.5,440.752,57.647,440.752,82.5z"></path> <g> </g> <g> </g> <g> </g> <g> </g> <g> </g> <g> </g> <g> </g> <g> </g> <g> </g> <g> </g> <g> </g> <g> </g> <g> </g> <g> </g> <g> </g> </svg> 